<?xml version="1.0" encoding="utf-8"?>
<!-- Generator: Adobe Illustrator 22.1.0, SVG Export Plug-In . SVG Version: 6.00 Build 0)  -->
<svg version="1.1" id="Calque_1" xmlns="http://www.w3.org/2000/svg" xmlns:xlink="http://www.w3.org/1999/xlink" x="0px" y="0px"
	 viewBox="0 0 29.7 23.3" style="enable-background:new 0 0 29.7 23.3;" xml:space="preserve">
<style type="text/css">
	.st0{opacity:0.11;fill:#565656;}
	.st1{fill:#FFFFFF;}
</style>
<circle class="st0" cx="14.9" cy="11.7" r="11.7"/>
<path id="Arrow_Left" class="st1" d="M9.5,11.2h11.2c0.3,0,0.5,0.2,0.5,0.5c0,0.2-0.2,0.5-0.5,0.5H9.5c-0.2,0-0.5-0.3-0.5-0.5
	C9,11.4,9.3,11.2,9.5,11.2z M13.5,7l-4.3,4.3C9,11.5,9,11.8,9.2,12c0.2,0.2,0.5,0.2,0.7,0l4.3-4.3c0.2-0.2,0.2-0.5,0-0.7
	S13.7,6.8,13.5,7z M13.5,16.3L9.2,12c-0.2-0.2-0.2-0.5,0-0.7c0.2-0.2,0.5-0.2,0.7,0l4.3,4.3c0.2,0.2,0.2,0.5,0,0.7
	S13.7,16.5,13.5,16.3z"/>
<polygon class="st1" points="11.1,11.2 10.5,11.9 9.5,11.4 9.8,11.1 "/>
</svg>
