<?xml version="1.0" encoding="utf-8"?>
<!-- Generator: Adobe Illustrator 22.1.0, SVG Export Plug-In . SVG Version: 6.00 Build 0)  -->
<svg version="1.1" id="Calque_1" xmlns="http://www.w3.org/2000/svg" xmlns:xlink="http://www.w3.org/1999/xlink" x="0px" y="0px"
	 viewBox="0 0 23 18" style="enable-background:new 0 0 23 18;" xml:space="preserve">
<style type="text/css">
	.st0{fill:#FFFFFF;}
</style>
<path id="Arrow_Left" class="st0" d="M6.4,8.5h10.2c0.3,0,0.5,0.2,0.5,0.5c0,0.3-0.2,0.5-0.5,0.5H6.4C6.1,9.5,5.9,9.2,5.9,9
	C5.9,8.7,6.1,8.5,6.4,8.5z M9.9,4.8L6.1,8.6c-0.2,0.2-0.2,0.5,0,0.7c0.2,0.2,0.5,0.2,0.7,0l3.9-3.9c0.2-0.2,0.2-0.5,0-0.7
	C10.4,4.6,10.1,4.6,9.9,4.8z M9.9,13.2L6.1,9.4c-0.2-0.2-0.2-0.5,0-0.7c0.2-0.2,0.5-0.2,0.7,0l3.9,3.9c0.2,0.2,0.2,0.5,0,0.7
	C10.4,13.4,10.1,13.4,9.9,13.2z"/>
</svg>
